<svg width="3084" height="600" viewBox="0 0 3084 600" fill="none" xmlns="http://www.w3.org/2000/svg">
<g clip-path="url(#clip0_614_6)">
<path d="M798.577 485.568L675.984 164.869H746.251L834.956 410.373L924.16 164.869H994.427L872.332 485.568H798.577Z" fill="#FFFFFF"/>
<path d="M1089.63 490.547C1048.77 490.547 1016.38 480.422 992.457 460.171C968.536 439.588 956.576 408.547 956.576 367.048C956.576 329.534 966.543 299.821 986.477 277.91C1006.74 255.667 1036.81 244.545 1076.68 244.545C1113.22 244.545 1141.13 254.173 1160.4 273.428C1180 292.352 1189.8 317.25 1189.8 348.125V390.951H1018.87C1022.52 409.875 1031.16 422.822 1044.78 429.794C1058.74 436.766 1078.34 440.251 1103.59 440.251C1116.21 440.251 1129 439.09 1141.96 436.766C1155.25 434.442 1166.55 431.454 1175.85 427.802V475.608C1164.88 480.588 1152.09 484.24 1137.48 486.564C1122.86 489.219 1106.91 490.547 1089.63 490.547ZM1018.87 349.619H1131V336.672C1131 323.06 1127.01 312.437 1119.04 304.801C1111.06 296.833 1097.61 292.849 1078.67 292.849C1056.41 292.849 1040.8 297.331 1031.83 306.295C1023.19 315.259 1018.87 329.7 1018.87 349.619Z" fill="#FFFFFF"/>
<path d="M1206.74 485.568V249.525H1269.03L1271.53 271.934C1281.16 264.631 1293.29 258.323 1307.91 253.011C1322.86 247.367 1338.47 244.545 1354.75 244.545C1385.98 244.545 1408.74 251.849 1423.02 266.457C1437.31 281.064 1444.45 303.639 1444.45 334.182V485.568H1377.18V337.668C1377.18 321.732 1373.85 310.445 1367.21 303.805C1360.9 297.165 1348.94 293.845 1331.33 293.845C1321.03 293.845 1310.56 296.169 1299.93 300.817C1289.63 305.465 1280.99 311.275 1274.02 318.246V485.568H1206.74Z" fill="#FFFFFF"/>
<path d="M1579.65 490.547C1535.46 490.547 1503.07 479.924 1482.47 458.677C1461.87 437.098 1451.57 406.721 1451.57 367.546C1451.57 328.372 1461.87 298.161 1482.47 276.914C1503.4 255.335 1535.79 244.545 1579.65 244.545C1623.83 244.545 1656.23 255.335 1676.83 276.914C1697.76 298.161 1708.22 328.372 1708.22 367.546C1708.22 406.721 1697.92 437.098 1677.32 458.677C1656.73 479.924 1624.17 490.547 1579.65 490.547ZM1579.65 433.28C1601.24 433.28 1616.69 428.466 1625.99 418.838C1635.3 408.879 1639.95 391.781 1639.95 367.546C1639.95 343.311 1635.3 326.38 1625.99 316.753C1616.69 306.793 1601.24 301.813 1579.65 301.813C1558.39 301.813 1543.1 306.793 1533.8 316.753C1524.5 326.38 1519.85 343.311 1519.85 367.546C1519.85 391.781 1524.5 408.879 1533.8 418.838C1543.1 428.466 1558.39 433.28 1579.65 433.28Z" fill="#FFFFFF"/>
<path d="M1725.1 485.568V249.525H1787.39L1789.88 272.432C1801.18 263.801 1813.47 256.995 1826.76 252.015C1840.38 247.035 1855 244.545 1870.62 244.545C1887.23 244.545 1900.02 247.035 1908.99 252.015C1918.29 256.995 1925.43 264.133 1930.42 273.428C1941.38 264.797 1953.84 257.825 1967.79 252.513C1982.08 247.201 1998.86 244.545 2018.13 244.545C2045.37 244.545 2065.47 251.683 2078.43 265.959C2091.38 279.902 2097.86 301.315 2097.86 330.198V485.568H2031.58V337.668C2031.58 322.064 2028.26 310.943 2021.61 304.303C2014.97 297.331 2004.34 293.845 1989.72 293.845C1969.79 293.845 1953.18 300.983 1939.89 315.259C1941.55 320.902 1942.38 327.708 1942.38 335.676V485.568H1879.59V337.668C1879.59 323.06 1877.09 312.105 1872.11 304.801C1867.13 297.497 1857.49 293.845 1843.21 293.845C1833.24 293.845 1823.77 296.501 1814.8 301.813C1806.16 306.793 1798.36 312.603 1791.38 319.242V485.568H1725.1Z" fill="#FFFFFF"/>
<path d="M2122.98 485.568V164.869H2257.53C2305.7 164.869 2341.92 177.318 2366.17 202.217C2390.76 226.784 2403.05 268.282 2403.05 326.712C2403.05 381.822 2390.92 422.158 2366.67 447.721C2342.75 472.952 2306.37 485.568 2257.53 485.568H2122.98ZM2190.25 433.778H2248.06C2267 433.778 2282.95 430.956 2295.9 425.312C2308.86 419.336 2318.49 408.713 2324.81 393.441C2331.45 377.838 2334.77 355.595 2334.77 326.712C2334.77 297.829 2331.78 275.752 2325.8 260.481C2319.82 245.209 2310.52 234.752 2297.9 229.108C2285.27 223.464 2268.66 220.642 2248.06 220.642H2190.25V433.778Z" fill="#FFFFFF"/>
<path d="M2420.12 485.568V249.525H2482.41L2485.4 273.926C2496.03 267.287 2509.15 261.311 2524.77 255.999C2540.72 250.355 2556.33 246.537 2571.61 244.545V295.339C2562.64 296.667 2552.84 298.659 2542.21 301.315C2531.58 303.971 2521.45 306.959 2511.81 310.279C2502.18 313.599 2494.04 317.085 2487.39 320.736V485.568H2420.12Z" fill="#FFFFFF"/>
<path d="M2684.5 490.547C2640.31 490.547 2607.92 479.924 2587.32 458.677C2566.72 437.098 2556.42 406.721 2556.42 367.546C2556.42 328.372 2566.72 298.161 2587.32 276.914C2608.25 255.335 2640.64 244.545 2684.5 244.545C2728.68 244.545 2761.08 255.335 2781.67 276.914C2802.6 298.161 2813.07 328.372 2813.07 367.546C2813.07 406.721 2802.77 437.098 2782.17 458.677C2761.57 479.924 2729.01 490.547 2684.5 490.547ZM2684.5 433.28C2706.09 433.28 2721.54 428.466 2730.84 418.838C2740.14 408.879 2744.8 391.781 2744.8 367.546C2744.8 343.311 2740.14 326.38 2730.84 316.753C2721.54 306.793 2706.09 301.813 2684.5 301.813C2663.23 301.813 2647.95 306.793 2638.65 316.753C2629.35 326.38 2624.69 343.311 2624.69 367.546C2624.69 391.781 2629.35 408.879 2638.65 418.838C2647.95 428.466 2663.23 433.28 2684.5 433.28Z" fill="#FFFFFF"/>
<path d="M2829.95 593.131V249.525H2888.25L2891.74 271.436C2902.04 262.805 2913.34 256.165 2925.63 251.517C2937.92 246.869 2952.37 244.545 2968.99 244.545C3003.54 244.545 3030.12 254.007 3048.72 272.93C3067.66 291.522 3077.13 322.064 3077.13 364.559C3077.13 407.053 3066.99 438.758 3046.73 459.673C3026.79 480.256 2999.55 490.547 2965 490.547C2938.42 490.547 2915.83 484.572 2897.22 472.62V593.131H2829.95ZM2948.05 441.247C2967.99 441.247 2983.11 435.106 2993.4 422.822C3003.7 410.539 3008.85 391.283 3008.85 365.057C3008.85 339.826 3004.2 321.732 2994.9 310.777C2985.6 299.489 2970.65 293.845 2950.05 293.845C2929.45 293.845 2911.84 300.983 2897.22 315.259V423.32C2904.2 428.632 2911.51 432.948 2919.15 436.268C2927.12 439.588 2936.76 441.247 2948.05 441.247Z" fill="#FFFFFF"/>
<path fill-rule="evenodd" clip-rule="evenodd" d="M793.844 492.436L666 158H751.077L834.974 390.197L919.343 158H1004.4L877.071 492.436H793.844ZM834.956 410.373L746.251 164.869H675.984L798.577 485.568H872.332L994.427 164.869H924.16L834.956 410.373ZM987.992 465.394L987.971 465.376C962.09 443.105 949.702 409.875 949.702 367.048C949.702 328.298 960.024 296.776 981.39 273.29L981.394 273.286C1003.35 249.189 1035.53 237.677 1076.68 237.677C1114.38 237.677 1144.27 247.623 1165.22 268.529C1186.32 288.919 1196.68 315.682 1196.68 348.125V397.82H1027.66C1031.64 410.543 1038.52 418.859 1047.89 423.665C1060.47 429.944 1078.84 433.383 1103.59 433.383C1115.79 433.383 1128.17 432.26 1140.75 430.005L1140.78 430C1153.76 427.73 1164.58 424.846 1173.33 421.409L1182.72 417.724V480.031L1178.69 481.861C1167.07 487.138 1153.69 490.935 1138.63 493.335C1123.57 496.066 1107.23 497.416 1089.63 497.416C1047.64 497.416 1013.51 486.998 988.013 465.411L987.992 465.394ZM1137.48 486.564C1152.09 484.24 1164.88 480.588 1175.85 475.608V427.802C1173.67 428.658 1171.38 429.478 1168.97 430.262C1161.14 432.819 1152.13 434.987 1141.96 436.766C1129 439.09 1116.21 440.251 1103.59 440.251C1078.34 440.251 1058.74 436.766 1044.78 429.794C1032.88 423.701 1024.78 413.043 1020.49 397.82C1019.87 395.626 1019.33 393.336 1018.87 390.951H1189.8V348.125C1189.8 317.25 1180 292.352 1160.4 273.428C1141.13 254.173 1113.22 244.545 1076.68 244.545C1036.81 244.545 1006.74 255.667 986.477 277.91C966.543 299.821 956.576 329.534 956.576 367.048C956.576 408.547 968.536 439.588 992.457 460.171C1016.38 480.422 1048.77 490.547 1089.63 490.547C1106.91 490.547 1122.86 489.219 1137.48 486.564ZM1114.23 309.71L1114.18 309.658C1108.13 303.618 1096.95 299.718 1078.67 299.718C1057.01 299.718 1043.74 304.14 1036.73 311.106C1030.77 317.323 1026.83 327.501 1025.94 342.751H1124.12V336.672C1124.12 324.466 1120.6 315.809 1114.28 309.76L1114.23 309.71ZM1131 336.672C1131 323.06 1127.01 312.437 1119.04 304.801C1111.06 296.833 1097.61 292.849 1078.67 292.849C1056.41 292.849 1040.8 297.331 1031.83 306.295C1024.21 314.193 1019.96 326.345 1019.05 342.751C1018.93 344.963 1018.87 347.252 1018.87 349.619H1131V336.672ZM1199.87 492.436V242.657H1275.19L1277.1 259.88C1285.39 254.864 1294.88 250.439 1305.52 246.571C1321.25 240.638 1337.67 237.677 1354.75 237.677C1386.87 237.677 1411.82 245.168 1427.94 261.656C1441.45 275.466 1448.79 295.128 1450.77 319.771C1456.09 301.05 1464.96 285.109 1477.53 272.135L1477.53 272.134C1500.25 248.71 1534.79 237.677 1579.65 237.677C1624.79 237.677 1659.35 248.685 1681.76 272.135C1704.29 295.029 1715.09 327.179 1715.09 367.546C1715.09 407.915 1704.46 440.2 1682.3 463.418L1682.28 463.437L1682.26 463.456C1659.84 486.584 1625.1 497.416 1579.65 497.416C1534.51 497.416 1499.95 486.576 1477.53 463.456L1477.52 463.437L1477.5 463.418C1465.37 450.715 1456.7 435.298 1451.33 417.328V492.436H1370.3V337.668C1370.3 322.363 1367.05 313.364 1362.35 308.662L1362.29 308.6L1362.23 308.536C1357.99 304.078 1348.6 300.714 1331.33 300.714C1322.1 300.714 1312.58 302.789 1302.72 307.094C1294.09 310.995 1286.84 315.704 1280.89 321.174V492.436H1199.87ZM1274.02 318.246C1280.99 311.275 1289.63 305.465 1299.93 300.817C1310.56 296.169 1321.03 293.845 1331.33 293.845C1348.94 293.845 1360.9 297.165 1367.21 303.805C1373.85 310.445 1377.18 321.732 1377.18 337.668V485.568H1444.45V334.182C1444.45 303.639 1437.31 281.064 1423.02 266.457C1408.74 251.849 1385.98 244.545 1354.75 244.545C1338.47 244.545 1322.86 247.367 1307.91 253.011C1296.37 257.204 1286.38 262.018 1277.94 267.453C1275.69 268.903 1273.56 270.396 1271.53 271.934L1269.03 249.525H1206.74V485.568H1274.02V318.246ZM1676.83 276.914C1656.23 255.335 1623.83 244.545 1579.65 244.545C1535.79 244.545 1503.4 255.335 1482.47 276.914C1461.87 298.161 1451.57 328.372 1451.57 367.546C1451.57 406.721 1461.87 437.098 1482.47 458.677C1503.07 479.924 1535.46 490.547 1579.65 490.547C1624.17 490.547 1656.73 479.924 1677.32 458.677C1697.92 437.098 1708.22 406.721 1708.22 367.546C1708.22 328.372 1697.76 298.161 1676.83 276.914ZM1621.01 321.482L1620.97 321.439C1613.56 313.504 1600.42 308.682 1579.65 308.682C1559.24 308.682 1546.25 313.487 1538.83 321.439L1538.79 321.482L1538.75 321.523C1531.36 329.166 1526.72 343.784 1526.72 367.546C1526.72 391.233 1531.33 406.092 1538.79 414.11C1546.21 421.763 1559.22 426.411 1579.65 426.411C1600.44 426.411 1613.6 421.746 1621.01 414.11C1628.46 406.092 1633.07 391.233 1633.07 367.546C1633.07 343.784 1628.43 329.166 1621.05 321.523L1621.01 321.482ZM1625.99 418.838C1616.69 428.466 1601.24 433.28 1579.65 433.28C1558.39 433.28 1543.1 428.466 1533.8 418.838C1524.5 408.879 1519.85 391.781 1519.85 367.546C1519.85 343.311 1524.5 326.38 1533.8 316.753C1543.1 306.793 1558.39 301.813 1579.65 301.813C1601.24 301.813 1616.69 306.793 1625.99 316.753C1635.3 326.38 1639.95 343.311 1639.95 367.546C1639.95 391.781 1635.3 408.879 1625.99 418.838ZM1718.23 492.436V242.657H1793.56L1795.46 260.112C1804.53 254.245 1814.16 249.401 1824.35 245.584L1824.37 245.574L1824.4 245.565C1838.83 240.288 1854.26 237.677 1870.62 237.677C1887.72 237.677 1901.85 240.209 1912.28 245.986C1920.4 250.339 1927.09 256.185 1932.3 263.468C1942.29 256.463 1953.31 250.676 1965.35 246.094L1965.37 246.085L1965.4 246.076C1980.62 240.415 1998.25 237.677 2018.13 237.677C2046.47 237.677 2068.77 245.112 2083.49 261.316C2098.09 277.051 2104.74 300.475 2104.74 330.198V492.436H2024.71V337.668C2024.71 322.745 2021.48 313.883 2016.75 309.16L2016.69 309.101L2016.64 309.04C2011.83 303.998 2003.42 300.714 1989.72 300.714C1972.93 300.714 1958.98 306.223 1947.5 317.31C1948.69 322.803 1949.25 328.947 1949.25 335.676V492.436H1872.71V337.668C1872.71 323.627 1870.28 314.308 1866.43 308.67C1863.36 304.175 1856.65 300.714 1843.21 300.714C1834.53 300.714 1826.27 303.008 1818.31 307.722L1818.27 307.743L1818.24 307.763C1810.93 311.976 1804.27 316.802 1798.25 322.238V492.436H1718.23ZM1791.38 319.242C1798.36 312.603 1806.16 306.793 1814.8 301.813C1823.77 296.501 1833.24 293.845 1843.21 293.845C1857.49 293.845 1867.13 297.497 1872.11 304.801C1877.09 312.105 1879.59 323.06 1879.59 337.668V485.568H1942.38V335.676C1942.38 327.708 1941.55 320.902 1939.89 315.259C1953.18 300.983 1969.79 293.845 1989.72 293.845C2004.34 293.845 2014.97 297.331 2021.61 304.303C2028.26 310.943 2031.58 322.064 2031.58 337.668V485.568H2097.86V330.198C2097.86 301.315 2091.38 279.902 2078.43 265.959C2065.47 251.683 2045.37 244.545 2018.13 244.545C1998.86 244.545 1982.08 247.201 1967.79 252.513C1956.15 256.946 1945.54 262.535 1935.98 269.28C1934.09 270.617 1932.23 272 1930.42 273.428C1929.31 271.363 1928.1 269.405 1926.78 267.553C1922.15 261.068 1916.22 255.889 1908.99 252.015C1900.02 247.035 1887.23 244.545 1870.62 244.545C1855 244.545 1840.38 247.035 1826.76 252.015C1815.95 256.068 1805.79 261.331 1796.29 267.803C1794.12 269.283 1791.99 270.826 1789.88 272.432L1787.39 249.525H1725.1V485.568H1791.38V319.242ZM2116.1 492.436V158H2257.53C2306.81 158 2345.08 170.743 2371.06 197.394C2397.56 223.894 2409.92 267.656 2409.92 326.712C2409.92 382.622 2397.65 425.049 2371.66 452.445C2345.99 479.523 2307.48 492.436 2257.53 492.436H2116.1ZM2366.67 447.721C2390.92 422.158 2403.05 381.822 2403.05 326.712C2403.05 268.282 2390.76 226.784 2366.17 202.217C2341.92 177.318 2305.7 164.869 2257.53 164.869H2122.98V485.568H2257.53C2306.37 485.568 2342.75 472.952 2366.67 447.721ZM2318.47 390.785L2318.48 390.752C2324.6 376.395 2327.9 355.23 2327.9 326.712C2327.9 298.135 2324.92 277.069 2319.4 262.984C2313.95 249.055 2305.77 240.151 2295.09 235.378C2283.67 230.274 2268.12 227.511 2248.06 227.511H2197.13V426.909H2248.06C2266.32 426.909 2281.25 424.187 2293.09 419.045C2304.19 413.903 2312.7 404.736 2318.45 390.819L2318.47 390.785ZM2295.9 425.312C2282.95 430.956 2267 433.778 2248.06 433.778H2190.25V220.642H2248.06C2268.66 220.642 2285.27 223.464 2297.9 229.108C2310.52 234.752 2319.82 245.209 2325.8 260.481C2331.78 275.752 2334.77 297.829 2334.77 326.712C2334.77 355.595 2331.45 377.838 2324.81 393.441C2318.49 408.713 2308.86 419.336 2295.9 425.312ZM2413.24 492.436V242.657H2488.49L2490.96 262.821C2500.17 257.958 2510.7 253.529 2522.51 249.511C2538.86 243.729 2554.93 239.793 2570.72 237.734L2578.49 236.723V276.384C2579.74 274.934 2581.04 273.518 2582.38 272.135L2582.38 272.134C2605.1 248.71 2639.64 237.677 2684.5 237.677C2729.63 237.677 2764.2 248.685 2786.61 272.135C2809.14 295.029 2819.94 327.179 2819.94 367.546C2819.94 407.915 2809.31 440.2 2787.15 463.418L2787.13 463.437L2787.11 463.456C2764.69 486.584 2729.95 497.416 2684.5 497.416C2639.36 497.416 2604.8 486.576 2582.38 463.456L2582.36 463.437L2582.34 463.418C2560.18 440.2 2549.55 407.915 2549.55 367.546C2549.55 343.382 2553.36 322.161 2561.18 304.107C2555.71 305.174 2549.94 306.464 2543.88 307.979C2533.43 310.59 2523.48 313.522 2514.05 316.772C2506.39 319.414 2499.8 322.126 2494.27 324.891V492.436H2413.24ZM2487.39 320.736C2494.04 317.085 2502.18 313.599 2511.81 310.279C2521.45 306.959 2531.58 303.971 2542.21 301.315C2550.23 299.312 2557.77 297.687 2564.85 296.439C2567.15 296.033 2569.41 295.666 2571.61 295.339V244.545C2569.33 244.843 2567.04 245.182 2564.74 245.561C2551.66 247.719 2538.33 251.199 2524.77 255.999C2512.18 260.281 2501.21 264.995 2491.86 270.141C2489.61 271.378 2487.46 272.64 2485.4 273.926L2482.41 249.525H2420.12V485.568H2487.39V320.736ZM2569.42 302.631C2560.75 320.498 2556.42 342.137 2556.42 367.546C2556.42 406.721 2566.72 437.098 2587.32 458.677C2607.92 479.924 2640.31 490.547 2684.5 490.547C2729.01 490.547 2761.57 479.924 2782.17 458.677C2802.77 437.098 2813.07 406.721 2813.07 367.546C2813.07 328.372 2802.6 298.161 2781.67 276.914C2761.08 255.335 2728.68 244.545 2684.5 244.545C2640.64 244.545 2608.25 255.335 2587.32 276.914C2584.13 280.206 2581.18 283.713 2578.49 287.434C2576.65 289.97 2574.93 292.605 2573.32 295.339C2572.86 296.124 2572.41 296.916 2571.97 297.717C2571.08 299.322 2570.23 300.96 2569.42 302.631ZM2725.86 321.482L2725.82 321.439C2718.41 313.504 2705.27 308.682 2684.5 308.682C2664.09 308.682 2651.1 313.487 2643.67 321.439L2643.63 321.482L2643.59 321.523C2636.21 329.166 2631.57 343.784 2631.57 367.546C2631.57 391.233 2636.18 406.092 2643.63 414.11C2651.06 421.763 2664.07 426.411 2684.5 426.411C2705.29 426.411 2718.45 421.746 2725.86 414.11C2733.31 406.092 2737.92 391.233 2737.92 367.546C2737.92 343.784 2733.28 329.166 2725.9 321.523L2725.86 321.482ZM2730.84 418.838C2721.54 428.466 2706.09 433.28 2684.5 433.28C2663.23 433.28 2647.95 428.466 2638.65 418.838C2629.35 408.879 2624.69 391.781 2624.69 367.546C2624.69 343.311 2629.35 326.38 2638.65 316.753C2647.95 306.793 2663.23 301.813 2684.5 301.813C2706.09 301.813 2721.54 306.793 2730.84 316.753C2740.14 326.38 2744.8 343.311 2744.8 367.546C2744.8 391.781 2740.14 408.879 2730.84 418.838ZM2823.07 600V242.657H2894.12L2896.72 259.002C2904.99 253.28 2913.82 248.64 2923.2 245.093C2936.44 240.085 2951.75 237.677 2968.99 237.677C3004.78 237.677 3033.33 247.502 3053.58 268.073C3074.41 288.553 3084 321.321 3084 364.559C3084 408.021 3073.64 441.769 3051.67 464.451C3030.18 486.639 3001 497.416 2965 497.416C2942.1 497.416 2921.74 493.143 2904.1 484.398V600H2823.07ZM2897.22 472.62C2899.46 474.055 2901.75 475.404 2904.1 476.667C2921.31 485.92 2941.61 490.547 2965 490.547C2999.55 490.547 3026.79 480.256 3046.73 459.673C3066.99 438.758 3077.13 407.053 3077.13 364.559C3077.13 322.064 3067.66 291.522 3048.72 272.93C3030.12 254.007 3003.54 244.545 2968.99 244.545C2952.37 244.545 2937.92 246.869 2925.63 251.517C2915.75 255.252 2906.52 260.272 2897.93 266.579C2895.83 268.121 2893.77 269.74 2891.74 271.436L2888.25 249.525H2829.95V593.131H2897.22V472.62ZM2989.63 315.182L2989.59 315.143C2982.07 306.01 2969.47 300.714 2950.05 300.714C2932.19 300.714 2916.99 306.516 2904.1 318.221V419.853C2909.81 423.925 2915.72 427.284 2921.84 429.947C2928.75 432.816 2937.42 434.379 2948.05 434.379C2966.49 434.379 2979.45 428.767 2988.14 418.411C2996.92 407.938 3001.98 390.625 3001.98 365.057C3001.98 340.342 2997.36 324.292 2989.66 315.221L2989.63 315.182ZM2919.15 436.268C2911.51 432.948 2904.2 428.632 2897.22 423.32V315.259C2911.84 300.983 2929.45 293.845 2950.05 293.845C2970.65 293.845 2985.6 299.489 2994.9 310.777C3004.2 321.732 3008.85 339.826 3008.85 365.057C3008.85 391.283 3003.7 410.539 2993.4 422.822C2983.11 435.106 2967.99 441.247 2948.05 441.247C2936.76 441.247 2927.12 439.588 2919.15 436.268Z" fill="#130335"/>
<path d="M600 300C600 134.57 465.43 0 300 0C134.57 0 0 134.57 0 300V311.328L200 486.328V600H400V486.328L600 311.328V300ZM300 59.082C321.68 82.6172 360.547 138.379 371.777 241.406C353.711 232.031 330.176 225 300 225C269.824 225 246.289 232.031 228.223 241.406C239.453 138.281 278.418 82.5195 300 59.082ZM177.148 309.961L237.109 450H234.375L58.3984 295.996C67.9687 286.23 84.7656 275 112.5 275C160.059 275 176.465 308.789 177.148 309.961ZM291.504 450L228.516 303.125C238.086 292.285 259.473 275 300 275C340.625 275 362.109 292.383 371.484 303.027L308.496 450H291.504ZM362.891 450L422.852 309.961C423.145 309.57 438.867 275 487.5 275C515.039 275 531.836 286.328 541.504 296.094L365.625 450H362.891ZM541.504 236.133C526.953 229.492 509.18 225 487.5 225C459.766 225 438.379 232.324 421.973 242.09C413.379 155.176 386.719 95.6055 361.914 58.0078C449.414 80.4688 518.457 148.926 541.504 236.133ZM237.988 58.1055C213.281 95.6055 186.621 155.176 178.027 242.09C161.621 232.324 140.234 225 112.5 225C90.8203 225 73.0469 229.492 58.4961 236.133C81.543 148.926 150.586 80.4688 237.988 58.1055ZM350 550H250V500H350V550Z" fill="#FFFFFF"/>
<path fill-rule="evenodd" clip-rule="evenodd" d="M208 482.698V592H392V482.698L592 307.698V300C592 138.989 461.011 8 300 8C138.989 8 8 138.989 8 300V307.698L208 482.698ZM0 311.328V300C0 134.57 134.57 0 300 0C465.43 0 600 134.57 600 300V311.328L400 486.328V600H200V486.328L0 311.328ZM299.999 47.2731L305.884 53.6619C328.656 78.3831 368.304 135.718 379.73 240.539L381.349 255.386L368.093 248.507C351.147 239.714 328.874 233 300 233C271.126 233 248.853 239.714 231.907 248.507L218.653 255.385L220.27 240.54C231.696 135.616 271.444 78.2825 294.115 53.6629L299.999 47.2731ZM184.308 306.357L249.237 458H231.369L46.7603 296.442L52.6847 290.397C63.5179 279.342 82.2933 267 112.5 267C138.367 267 156.154 276.251 167.577 285.94C173.237 290.74 177.272 295.591 179.959 299.358C182.62 303.088 184.115 306.026 184.059 305.93L184.308 306.357ZM286.23 458L219.168 301.625L222.518 297.83C233.359 285.552 256.828 267 300 267C343.262 267 366.834 285.643 377.488 297.74L380.829 301.533L313.771 458H286.23ZM350.763 458L415.875 305.929L416.066 305.675C416.233 305.356 416.46 304.933 416.747 304.423C417.403 303.258 418.359 301.665 419.654 299.789C422.239 296.044 426.189 291.151 431.814 286.284C443.177 276.453 461.088 267 487.5 267C517.554 267 536.308 279.475 547.189 290.465L553.175 296.511L368.631 458H350.763ZM553.556 250.427L538.182 243.411C524.672 237.245 508.031 233 487.5 233C461.265 233 441.285 239.905 426.065 248.964L415.25 255.401L414.011 242.877C405.547 157.267 379.332 98.9367 355.236 62.4134L343.816 45.1027L363.903 50.259C454.203 73.4387 525.449 144.073 549.238 234.089L553.556 250.427ZM256.055 45.2252L244.669 62.5069C220.668 98.9342 194.453 157.266 185.989 242.877L184.75 255.401L173.935 248.964C158.715 239.905 138.735 233 112.5 233C91.9694 233 75.3284 237.245 61.8176 243.411L46.4438 250.427L50.7616 234.089C74.5502 144.075 145.796 73.4367 236.005 50.3552L256.055 45.2252ZM358 558H242V492H358V558ZM300 59.082C298.326 60.8996 296.548 62.9115 294.686 65.1248C273.288 90.5652 240.859 142.614 229.35 231.922C228.948 235.038 228.572 238.199 228.223 241.406C230.936 239.998 233.773 238.643 236.736 237.357C253.508 230.078 274.356 225 300 225C325.644 225 346.492 230.078 363.263 237.357C366.227 238.643 369.064 239.998 371.777 241.406C371.428 238.199 371.051 235.037 370.65 231.921C359.141 142.675 326.774 90.6292 305.315 65.124C303.454 62.9128 301.676 60.9012 300 59.082ZM58.3984 295.996C60.1416 294.217 62.1245 292.39 64.3696 290.591C74.4505 282.512 89.8172 275 112.5 275C158.463 275 175.329 306.559 177.026 309.735C177.085 309.846 177.126 309.922 177.148 309.961L237.109 450H234.375L58.3984 295.996ZM422.852 309.961C422.864 309.945 422.903 309.869 422.969 309.74C424.508 306.756 440.888 275 487.5 275C510.043 275 525.389 282.591 535.517 290.702C537.762 292.499 539.75 294.322 541.504 296.094L365.625 450H362.891L422.852 309.961ZM541.504 236.133C540.625 232.808 539.68 229.511 538.669 226.242C514.347 147.591 452.201 85.5927 373.492 61.2798C369.671 60.0996 365.811 59.0081 361.914 58.0078C364.018 61.1976 366.136 64.5455 368.255 68.0549C390.271 104.516 412.414 158.403 421.043 233.395C421.373 236.262 421.683 239.161 421.973 242.09C424.401 240.644 426.939 239.252 429.59 237.93C444.849 230.316 463.871 225 487.5 225C504.738 225 519.506 227.84 532.148 232.342C535.406 233.502 538.523 234.772 541.504 236.133ZM231.663 68.1413C233.777 64.6347 235.89 61.2905 237.988 58.1055C234.097 59.1012 230.242 60.1882 226.425 61.3643C147.797 85.5949 85.6534 147.591 61.331 226.242C60.3202 229.511 59.3747 232.808 58.4961 236.133C61.4774 234.772 64.594 233.502 67.8518 232.342C80.4941 227.84 95.2623 225 112.5 225C136.129 225 155.151 230.316 170.41 237.93C173.061 239.252 175.599 240.644 178.027 242.09C178.317 239.161 178.627 236.262 178.957 233.395C187.585 158.411 209.722 104.53 231.663 68.1413ZM228.516 303.125L291.504 450H308.496L371.484 303.027C362.109 292.383 340.625 275 300 275C259.473 275 238.086 292.285 228.516 303.125ZM350 550V500H250V550H350Z" fill="#130335"/>
</g>
<defs>
<clipPath id="clip0_614_6">
<rect width="3084" height="600" fill="white"/>
</clipPath>
</defs>
</svg>
